<svg width="24" height="24" viewBox="0 0 24 24" fill="none" xmlns="http://www.w3.org/2000/svg">
<g clip-path="url(#clip0)">
<path d="M16.0155 14.379C16.0155 14.0588 15.8783 13.8832 15.6713 13.758C15.4605 13.6372 15.2063 13.6207 14.8583 13.6207H13.3155V16.4407H13.9913V15.414H14.7143C14.952 15.414 15.1013 15.438 15.1905 15.5392C15.3113 15.6682 15.2963 15.918 15.2963 16.0905V16.4385H15.9525V15.8835C15.9525 15.6337 15.9375 15.5085 15.8475 15.3675C15.7592 15.2617 15.6446 15.181 15.5153 15.1335L15.534 15.1252C15.7178 15.0555 16.0148 14.8283 16.0148 14.379H16.0155ZM15.144 14.7847L15.1163 14.781C15.0263 14.8358 14.9213 14.8403 14.784 14.8403H13.9763V14.211H14.8005C14.9213 14.211 15.0383 14.211 15.1328 14.262C15.1798 14.2849 15.219 14.3214 15.2453 14.3666C15.2716 14.4119 15.2839 14.464 15.2805 14.5162C15.2805 14.637 15.2333 14.73 15.1478 14.7855L15.144 14.7847ZM20.2965 15.8362H18.9998V16.4385H20.3048C20.9798 16.4385 21.3548 16.1602 21.3548 15.5557C21.3548 15.2737 21.2888 15.1058 21.168 14.9738C21.0158 14.841 20.7728 14.778 20.4383 14.7667L20.0625 14.751C19.9575 14.751 19.8833 14.751 19.8053 14.7203C19.7607 14.7063 19.722 14.6781 19.6951 14.6401C19.6681 14.602 19.6544 14.5561 19.656 14.5095C19.656 14.4195 19.6718 14.3452 19.746 14.3025C19.8294 14.256 19.9244 14.2341 20.0198 14.2395H21.246V13.6387H19.8983C19.1955 13.6387 18.9413 14.076 18.9413 14.4788C18.9413 15.381 19.7153 15.3337 20.3483 15.3495C20.4495 15.3495 20.5275 15.3645 20.5703 15.4072C20.6175 15.4395 20.652 15.513 20.652 15.5873C20.652 15.6653 20.6168 15.7395 20.574 15.7673C20.5163 15.8213 20.4263 15.837 20.2973 15.837L20.2965 15.8362ZM-0.000740723 0V10.098L0.808509 8.21925H2.55826L2.78401 8.68425V8.21925H4.82701L5.27626 9.2385L5.71426 8.2275H12.2183C12.5115 8.2275 12.7763 8.28525 12.972 8.46525V8.23425H14.7608V8.46525C15.0645 8.2935 15.444 8.23425 15.8775 8.23425H18.4823L18.7253 8.69925V8.23425H20.643L20.8958 8.69925V8.2305H22.7558V12.1807H20.8688L20.5095 11.5785V12.1642H18.1538L17.8995 11.535H17.3138L17.0445 12.1478H15.8333C15.3525 12.1478 14.9933 12.0465 14.751 11.91V12.1478H11.8598V11.2657C11.8598 11.145 11.8328 11.145 11.7585 11.1285H11.6528V12.1635H6.06301V11.6873L5.85226 12.1635H4.68826L4.48501 11.6873V12.1515H2.23126L1.97701 11.5268H1.39501L1.14226 12.1515H-0.00299072V23.9993H23.7818V16.89C23.5125 17.0258 23.169 17.0693 22.809 17.0693H21.087V16.815C20.8763 16.9793 20.517 17.0693 20.1728 17.0693H14.7075V16.1715C14.7075 16.0508 14.6873 16.0507 14.5868 16.0507H14.5125V17.0737H12.7118V16.008C12.4148 16.1452 12.0668 16.1558 11.7818 16.1453H11.571V17.0595H9.39226L8.84926 16.4415L8.27851 17.0438H4.73926V13.1138H8.34901L8.86801 13.716L9.42301 13.1138H11.8328C12.114 13.1138 12.5708 13.146 12.774 13.341V13.0988H14.9498C15.153 13.0988 15.5948 13.146 15.8558 13.3245V13.0867H19.1175V13.3245C19.2818 13.1603 19.6298 13.0867 19.9223 13.0867H21.8123V13.3245C22.008 13.1768 22.2773 13.0867 22.6523 13.0867H23.8283V0.00075L-0.000740723 0ZM21.1553 14.9528C21.159 14.961 21.159 14.9685 21.1635 14.973C21.1755 14.9798 21.1905 14.9798 21.1988 14.9918L21.156 14.9565L21.1553 14.9528ZM23.8275 13.0823H23.8943V13.6373H23.8275V13.0823ZM23.862 15.0308V15.0225C23.835 14.9993 23.8193 14.9768 23.7878 14.9528C23.64 14.8005 23.397 14.7375 23.0258 14.73L22.6628 14.7188C22.5458 14.7188 22.4715 14.7105 22.3935 14.688C22.3491 14.674 22.3104 14.6458 22.2835 14.6077C22.2565 14.5697 22.2427 14.5238 22.2443 14.4772C22.2443 14.3872 22.275 14.316 22.3343 14.2733C22.4085 14.2305 22.482 14.223 22.6035 14.223H23.8268V13.6373H22.5458C21.8535 13.6373 21.585 14.0745 21.585 14.4772C21.585 15.375 22.3658 15.3323 22.995 15.348C23.1008 15.348 23.175 15.3593 23.2178 15.4058C23.265 15.438 23.2958 15.5115 23.2958 15.5858C23.2952 15.6206 23.2868 15.6548 23.2712 15.686C23.2557 15.7171 23.2333 15.7444 23.2058 15.7657C23.1585 15.8197 23.0685 15.8355 22.9365 15.8355H21.6465V16.4407H22.9328C23.3535 16.4407 23.667 16.3237 23.835 16.0815H23.862C23.952 15.9442 23.9993 15.7808 23.9993 15.5588C23.9993 15.3158 23.952 15.168 23.862 15.0308V15.0308ZM18.597 14.2073V13.6252H16.362V16.4573H18.597V15.8715H17.0258V15.3052H18.558V14.7195H17.0258V14.2117L18.597 14.2073ZM13.5113 8.78475H14.1945V11.6017H13.5113V8.78475ZM13.1243 9.543L13.116 9.55125C13.116 9.234 12.987 9.051 12.7763 8.9265C12.561 8.80125 12.3083 8.78925 11.9685 8.78925H10.4295V11.6093H11.1045V10.5742H11.8238C12.0615 10.5742 12.2145 10.605 12.312 10.695C12.4343 10.8323 12.4178 11.0738 12.4178 11.2418V11.598H13.0935V11.0468C13.0935 10.797 13.0778 10.6718 12.9833 10.527C12.8953 10.4228 12.7826 10.3423 12.6555 10.293C12.8 10.2291 12.9221 10.1237 13.0064 9.99012C13.0907 9.85654 13.1333 9.70088 13.1288 9.543H13.1243ZM12.2693 9.93825H12.2573C12.1635 9.99225 12.0615 9.996 11.925 9.996H11.1008V9.37125H11.925C12.0458 9.37125 12.1628 9.375 12.2528 9.42225C12.3428 9.46125 12.405 9.55125 12.405 9.672C12.405 9.79275 12.3578 9.891 12.2693 9.93825ZM15.921 9.37125H16.5503V8.7735H15.9053C15.444 8.7735 15.1043 8.87925 14.886 9.10275C14.601 9.40275 14.526 9.7935 14.526 10.2158C14.526 10.728 14.6468 11.0475 14.886 11.286C15.1163 11.5238 15.5303 11.5988 15.8543 11.5988H16.6365L16.8908 10.9695H18.2805L18.5423 11.5988H19.9013V9.489L21.1755 11.5988H22.1288V8.7855H21.441V10.7505L20.262 8.78925H19.242V11.3985L18.1088 8.74275H17.1045L16.1633 10.9658H15.8625C15.6878 10.9658 15.4995 10.935 15.3945 10.8285C15.2693 10.6807 15.2108 10.4692 15.2108 10.1685C15.2108 9.8835 15.2888 9.65625 15.402 9.53925C15.5348 9.402 15.6758 9.37125 15.918 9.37125H15.921ZM17.589 9.26625L18.0503 10.383V10.3867H17.1203L17.589 9.26625ZM2.37826 10.9688L2.63251 11.598H3.99976V9.39525L4.97251 11.598H5.55451L6.52651 9.39525L6.54226 11.598H7.23301V8.78925H6.11626L5.31151 10.6913L4.43326 8.7855H3.34351V11.4495L2.20276 8.7855H1.20676L0.0120093 11.5988H0.729759L0.987759 10.974H2.37901L2.37826 10.9688ZM1.69051 9.26625L2.15176 10.383L2.14801 10.3867H1.23376L1.69051 9.26625ZM11.8545 13.6207H9.71476L8.86276 14.5425L8.03851 13.6207H5.34751V16.4407H7.99951L8.85451 15.5078L9.67951 16.4377H10.9793V15.4995H11.8193C12.417 15.4995 12.987 15.3353 12.987 14.5545L12.9833 14.5507C12.9833 13.77 12.3863 13.6207 11.8545 13.6207V13.6207ZM7.67101 15.852H6.01876V15.2933H7.48651V14.7195H6.01876V14.2117H7.69801L8.43301 15.0315L7.66726 15.8558L7.67101 15.852ZM10.311 16.1843L9.27976 15.0353L10.311 13.9305V16.1843ZM11.862 14.9257H10.9793V14.2065H11.862C12.1043 14.2065 12.2843 14.3047 12.2843 14.5507C12.2843 14.7967 12.1365 14.9257 11.862 14.9257ZM9.96826 9.37125V8.7855H7.72951V11.6025H9.96826V11.0205H8.39701V10.4572H9.92476V9.879H8.39701V9.37125H9.96826Z" fill="#333333"/>
</g>
<defs>
<clipPath id="clip0">
<rect width="24" height="24" fill="white"/>
</clipPath>
</defs>
</svg>
