<svg width="24" height="24" viewBox="0 0 24 24" fill="none" xmlns="http://www.w3.org/2000/svg">
<path d="M5.293 5.29301C5.48053 5.10553 5.73484 5.00022 6 5.00022C6.26516 5.00022 6.51947 5.10553 6.707 5.29301L12 10.586L17.293 5.29301C17.3852 5.19749 17.4956 5.12131 17.6176 5.0689C17.7396 5.01649 17.8708 4.98891 18.0036 4.98775C18.1364 4.9866 18.2681 5.0119 18.391 5.06218C18.5138 5.11246 18.6255 5.18672 18.7194 5.28061C18.8133 5.3745 18.8875 5.48615 18.9378 5.60905C18.9881 5.73195 19.0134 5.86363 19.0123 5.99641C19.0111 6.12919 18.9835 6.26041 18.9311 6.38241C18.8787 6.50441 18.8025 6.61476 18.707 6.707L13.414 12L18.707 17.293C18.8892 17.4816 18.99 17.7342 18.9877 17.9964C18.9854 18.2586 18.8802 18.5094 18.6948 18.6948C18.5094 18.8802 18.2586 18.9854 17.9964 18.9877C17.7342 18.99 17.4816 18.8892 17.293 18.707L12 13.414L6.707 18.707C6.5184 18.8892 6.2658 18.99 6.0036 18.9877C5.7414 18.9854 5.49059 18.8802 5.30518 18.6948C5.11977 18.5094 5.0146 18.2586 5.01233 17.9964C5.01005 17.7342 5.11084 17.4816 5.293 17.293L10.586 12L5.293 6.707C5.10553 6.51948 5.00021 6.26517 5.00021 6C5.00021 5.73484 5.10553 5.48053 5.293 5.29301V5.29301Z" fill="#9e9e9e"/>
</svg>
