<svg width="28" height="28" viewBox="0 0 28 28" fill="none" xmlns="http://www.w3.org/2000/svg">
<g clip-path="url(#clip0)">
<path d="M25.2971 11.088C25.2971 10.7039 25.0294 10.5 24.5385 10.5H24.3005V11.7101H24.5289C25.0294 11.7101 25.2971 11.4966 25.2971 11.088V11.088ZM25.6664 3.1115H2.33274C1.7139 3.11174 1.12046 3.35767 0.682874 3.79526C0.245285 4.23285 -0.000653102 4.82628 -0.00088501 5.44513V22.5566C-0.000653102 23.1755 0.245285 23.7689 0.682874 24.2065C1.12046 24.6441 1.7139 24.89 2.33274 24.8903H25.6664C26.2852 24.89 26.8786 24.6441 27.3162 24.2065C27.7538 23.7689 27.9998 23.1755 28 22.5566V5.44513C27.9998 4.82628 27.7538 4.23285 27.3162 3.79526C26.8786 3.35767 26.2852 3.11174 25.6664 3.1115V3.1115ZM23.5226 9.863C24.6216 9.863 26.0942 9.6635 26.0942 11.0495C26.0942 11.662 25.7731 12.0558 25.1851 12.1774L26.439 13.8495H25.4861L24.4072 12.2553H24.3005V13.8495H23.5226V9.863ZM20.8057 9.86825H23.0081V10.549H21.5836V11.4336H22.9591V12.1048H21.5836V13.1836H23.0081V13.8548H20.8057V9.86825ZM17.4659 9.86825L18.5307 12.5519L19.6096 9.86825H20.4601L18.7346 13.9615H18.3164L16.6154 9.86825H17.4659ZM14.7481 9.72213C15.0329 9.72201 15.3149 9.77802 15.578 9.88694C15.8411 9.99587 16.0802 10.1556 16.2816 10.3569C16.4829 10.5583 16.6426 10.7974 16.7516 11.0605C16.8605 11.3236 16.9165 11.6056 16.9164 11.8904C16.9165 12.1751 16.8605 12.4572 16.7516 12.7203C16.6426 12.9834 16.4829 13.2225 16.2816 13.4238C16.0802 13.6252 15.8411 13.7849 15.578 13.8938C15.3149 14.0027 15.0329 14.0587 14.7481 14.0586C14.4633 14.0587 14.1813 14.0027 13.9182 13.8938C13.6551 13.7849 13.416 13.6252 13.2147 13.4238C13.0133 13.2225 12.8536 12.9834 12.7447 12.7203C12.6358 12.4572 12.5798 12.1751 12.5799 11.8904C12.5798 11.6056 12.6358 11.3236 12.7447 11.0605C12.8536 10.7974 13.0133 10.5583 13.2147 10.3569C13.416 10.1556 13.6551 9.99587 13.9182 9.88694C14.1813 9.77802 14.4633 9.72201 14.7481 9.72213V9.72213ZM12.3524 10.0188V10.9428C11.375 9.96538 10.0774 10.7144 10.0774 11.8668C10.0774 13.0821 11.4144 13.7384 12.3524 12.8004V13.7244C10.9086 14.42 9.27499 13.447 9.27499 11.8676C9.27499 10.3513 10.8841 9.29163 12.3524 10.0205V10.0188ZM7.62737 13.2414C8.18124 13.2414 8.71674 12.4976 7.46724 12.0558C6.73837 11.788 6.48549 11.5019 6.48549 10.9524C6.48549 9.8245 7.97299 9.4255 8.90137 10.2576L8.49274 10.7826C7.98699 10.2183 7.28262 10.4816 7.28262 10.9043C7.28262 11.1178 7.41386 11.2394 7.88024 11.4048C8.76486 11.7259 9.02737 12.012 9.02737 12.649C9.02737 14.0831 7.14086 14.4673 6.27636 13.1985L6.77686 12.7173C6.95711 13.062 7.25812 13.2423 7.62737 13.2423V13.2414ZM2.69324 13.8539H1.55574V9.86738H2.69324C3.96199 9.86738 4.83699 10.6934 4.83699 11.865C4.83699 12.7645 4.19561 13.853 2.69324 13.853V13.8539ZM5.97449 13.8539H5.19662V9.86738H5.97449V13.8539ZM26.4442 22.6039C26.4429 22.7968 26.3656 22.9814 26.2292 23.1178C26.0928 23.2541 25.9082 23.3314 25.7154 23.3328H6.22211C15.4385 21.602 24.8255 16.5664 26.4442 15.5549V22.6039ZM3.60237 10.8693C3.34949 10.6313 3.03799 10.5481 2.53749 10.5481H2.33361V13.1828H2.53749C3.03799 13.1828 3.36349 13.0856 3.60237 12.8721C3.87974 12.6193 4.03461 12.25 4.03461 11.8659C4.03461 11.4818 3.87887 11.1125 3.60237 10.8693V10.8693Z" fill="#333333"/>
</g>
<defs>
<clipPath id="clip0">
<rect width="28" height="28" fill="white"/>
</clipPath>
</defs>
</svg>
