<svg width="36" height="36" viewBox="0 0 36 36" fill="none" xmlns="http://www.w3.org/2000/svg">
<path d="M30.12 17.13L24.06 8.655C23.55 7.935 22.725 7.5 21.84 7.5C19.605 7.5 18.315 10.02 19.605 11.835L24 18L19.605 24.165C18.3 25.98 19.605 28.5 21.84 28.5C22.725 28.5 23.565 28.065 24.075 27.345L30.135 18.87C30.495 18.345 30.495 17.655 30.12 17.13Z" fill="white"/>
<path d="M19.62 17.13L13.575 8.655C13.05 7.935 12.225 7.5 11.34 7.5C9.105 7.5 7.8 10.02 9.105 11.835L13.5 18L9.105 24.165C7.8 25.98 9.105 28.5 11.34 28.5C12.225 28.5 13.065 28.065 13.575 27.345L19.635 18.87C19.995 18.345 19.995 17.655 19.62 17.13Z" fill="white"/>
</svg>
