<svg width="24" height="24" viewBox="0 0 24 24" fill="none" xmlns="http://www.w3.org/2000/svg">
<g clip-path="url(#clip0)">
<path d="M23.444 12.2245C23.444 11.2413 23.3642 10.5237 23.1916 9.77963H11.9636V14.2176H18.5542C18.4213 15.3205 17.7038 16.9815 16.1093 18.0976L16.0869 18.2461L19.637 20.9963L19.8829 21.0209C22.1418 18.9347 23.444 15.8653 23.444 12.2245" fill="#4285F4"/>
<path d="M11.9636 23.9176C15.1924 23.9176 17.903 22.8545 19.8829 21.0209L16.1093 18.0976C15.0994 18.8018 13.7441 19.2934 11.9636 19.2934C8.80117 19.2934 6.11711 17.2074 5.16032 14.324L5.02008 14.3359L1.32866 17.1927L1.28038 17.3269C3.24691 21.2334 7.28633 23.9176 11.9636 23.9176Z" fill="#34A853"/>
<path d="M5.16032 14.324C4.90786 13.5799 4.76176 12.7826 4.76176 11.9588C4.76176 11.1349 4.90786 10.3377 5.14704 9.59359L5.14035 9.43511L1.40267 6.53239L1.28038 6.59056C0.469879 8.21166 0.00481033 10.0321 0.00481033 11.9588C0.00481033 13.8855 0.469879 15.7058 1.28038 17.3269L5.16032 14.324" fill="#FBBC05"/>
<path d="M11.9636 4.62403C14.2091 4.62403 15.7239 5.59401 16.5876 6.40461L19.9626 3.10928C17.8898 1.1826 15.1924 0 11.9636 0C7.28633 0 3.24691 2.68406 1.28038 6.59056L5.14704 9.59359C6.11711 6.7102 8.80117 4.62403 11.9636 4.62403" fill="#EB4335"/>
</g>
<defs>
<clipPath id="clip0">
<rect width="23.46" height="24" fill="white"/>
</clipPath>
</defs>
</svg>
