<svg width="30" height="30" viewBox="0 0 30 30" fill="none" xmlns="http://www.w3.org/2000/svg">
<path d="M15 28.2518C14.7934 28.2518 14.5868 28.1793 14.4211 28.0342L14.3827 28.0006C13.1046 26.8823 11.9041 25.8594 10.7432 24.87C7.62768 22.2152 4.93723 19.9225 3.06709 17.6983C0.97459 15.2096 0 12.8879 0 10.3917C0 8.09842 0.777363 5.95342 2.18877 4.35182C3.6685 2.67281 5.72121 1.7482 7.96875 1.7482C11.1298 1.7482 13.131 3.63609 14.2532 5.21988C14.5444 5.63086 14.7921 6.04295 15 6.43072C15.2079 6.04295 15.4556 5.63086 15.7468 5.21988C16.869 3.63615 18.8702 1.7482 22.0312 1.7482C24.2788 1.7482 26.3315 2.67287 27.8112 4.35182C29.2226 5.95342 30 8.09842 30 10.3917C30 12.8879 29.0254 15.2097 26.9329 17.6983C25.0628 19.9225 22.3723 22.2152 19.257 24.8699C18.0959 25.8594 16.8954 26.8823 15.6173 28.0006L15.5789 28.0342C15.4132 28.1793 15.2066 28.2518 15 28.2518ZM7.96875 3.50602C6.23314 3.50602 4.64883 4.21916 3.50754 5.51408C2.3792 6.79436 1.75781 8.52662 1.75781 10.3917C1.75781 14.9038 5.78584 18.3363 11.883 23.532C12.884 24.3849 13.914 25.2626 15 26.2066C16.086 25.2626 17.116 24.3849 18.1168 23.5321C24.2142 18.3363 28.2422 14.9038 28.2422 10.3917C28.2422 8.52662 27.6208 6.79436 26.4924 5.51402C25.3512 4.21916 23.7669 3.50602 22.0312 3.50602C19.6213 3.50602 18.0635 4.99066 17.1811 6.23613C16.3896 7.35322 15.9765 8.47922 15.8357 8.91152C15.7178 9.27334 15.3805 9.5182 15 9.5182C14.6195 9.5182 14.2822 9.27334 14.1643 8.91152C14.0235 8.47928 13.6104 7.35322 12.8189 6.23619C11.9365 4.99066 10.3787 3.50602 7.96875 3.50602Z" fill="black" fill-opacity="0.3"/>
</svg>
