<svg width="30" height="30" viewBox="0 0 30 30" fill="none" xmlns="http://www.w3.org/2000/svg">
<g clip-path="url(#clip0)">
<path d="M22.0868 1.67033H22.0341C18.1653 1.67033 16.0024 4.50158 15 6.41836C13.98 4.50152 11.8346 1.67033 7.96587 1.67033H7.89562C3.71021 1.70555 0.222008 5.27531 0.011012 9.79477C-0.252836 15.3341 4.16748 19.0622 10.7795 24.6895C11.9226 25.6743 13.136 26.7119 14.4197 27.8198L15 28.3297L15.5804 27.8198C16.8465 26.7119 18.0775 25.6743 19.2206 24.6895C25.8326 19.0622 30.2525 15.3341 29.9887 9.79477C29.7775 5.27525 26.2721 1.70549 22.0868 1.67033Z" fill="#FF3636"/>
<path d="M29.9888 9.79477C30.2526 15.3341 25.8327 19.0622 19.2207 24.6895C18.0776 25.6743 16.8466 26.7119 15.5805 27.8198L15.0001 28.3297V6.41836C16.0025 4.50152 18.1655 1.67033 22.0342 1.67033H22.0869C26.2723 1.70549 29.7777 5.27525 29.9888 9.79477Z" fill="#F40000"/>
</g>
<defs>
<clipPath id="clip0">
<rect width="30" height="30" fill="white"/>
</clipPath>
</defs>
</svg>
