<svg width="32" height="24" viewBox="0 0 32 24" fill="none" xmlns="http://www.w3.org/2000/svg">
<g clip-path="url(#clip0)">
<path d="M31.0352 19.081C31.0352 21.7364 28.8729 23.8987 26.2175 23.8987H0.00485229V4.8177C0.00485229 2.1623 2.16716 0 4.82255 0H31.0352V19.081Z" fill="white"/>
<path d="M22.4999 14.1874H24.4914C24.5484 14.1874 24.6811 14.1685 24.7381 14.1685C25.1175 14.0926 25.4399 13.7512 25.4399 13.277C25.4399 12.8218 25.1175 12.4804 24.7381 12.3856C24.6811 12.3665 24.5674 12.3665 24.4915 12.3665H22.5V14.1874H22.4999Z" fill="url(#paint0_linear)"/>
<path d="M24.2639 1.61212C22.3671 1.61212 20.8118 3.14861 20.8118 5.06424V8.64909H25.6864C25.8002 8.64909 25.933 8.64909 26.0278 8.668C27.1279 8.72497 27.9435 9.29394 27.9435 10.2801C27.9435 11.0578 27.3935 11.7217 26.3692 11.8545V11.8924C27.4882 11.9682 28.3418 12.5942 28.3418 13.5615C28.3418 14.6047 27.3935 15.2875 26.1416 15.2875H20.7928V22.3055H25.8571C27.7538 22.3055 29.3092 20.7691 29.3092 18.8533V1.61212H24.2639V1.61212Z" fill="url(#paint1_linear)"/>
<path d="M25.1932 10.5079C25.1932 10.0526 24.8708 9.74909 24.4914 9.69212C24.4536 9.69212 24.3587 9.67321 24.3018 9.67321H22.4999V11.3423H24.3018C24.3588 11.3423 24.4725 11.3423 24.4915 11.3234C24.8709 11.2664 25.1933 10.963 25.1933 10.5078L25.1932 10.5079Z" fill="url(#paint2_linear)"/>
<path d="M5.18291 1.61212C3.28619 1.61212 1.73079 3.14861 1.73079 5.06424V13.5806C2.69819 14.0547 3.7034 14.3582 4.70873 14.3582C5.90364 14.3582 6.54849 13.6375 6.54849 12.6512V8.63006H9.5074V12.6321C9.5074 14.1874 8.54013 15.4583 5.25879 15.4583C3.26728 15.4583 1.71188 15.0219 1.71188 15.0219V22.2864H6.77613C8.67285 22.2864 10.2282 20.7501 10.2282 18.8343V1.61236H5.18279L5.18291 1.61212Z" fill="url(#paint3_linear)"/>
<path d="M14.7234 1.61212C12.8267 1.61212 11.2713 3.14861 11.2713 5.06424V9.57842C12.1439 8.83867 13.6612 8.36449 16.108 8.4783C17.4167 8.53527 18.8202 8.89564 18.8202 8.89564V10.3561C18.1184 9.99576 17.284 9.67321 16.2028 9.59733C14.344 9.46461 13.225 10.375 13.225 11.9682C13.225 13.5805 14.344 14.4909 16.2028 14.3392C17.284 14.2633 18.1185 13.9219 18.8202 13.5805V15.041C18.8202 15.041 17.4356 15.4013 16.108 15.4583C13.6612 15.572 12.1439 15.0978 11.2714 14.3582V22.3244H16.3356C18.2324 22.3244 19.7876 20.788 19.7876 18.8722V1.61236H14.7234V1.61212Z" fill="url(#paint4_linear)"/>
</g>
<defs>
<linearGradient id="paint0_linear" x1="20.8086" y1="13.2792" x2="29.3322" y2="13.2792" gradientUnits="userSpaceOnUse">
<stop stop-color="#007940"/>
<stop offset="0.2285" stop-color="#00873F"/>
<stop offset="0.7433" stop-color="#40A737"/>
<stop offset="1" stop-color="#5CB531"/>
</linearGradient>
<linearGradient id="paint1_linear" x1="20.8084" y1="11.9505" x2="29.3325" y2="11.9505" gradientUnits="userSpaceOnUse">
<stop stop-color="#007940"/>
<stop offset="0.2285" stop-color="#00873F"/>
<stop offset="0.7433" stop-color="#40A737"/>
<stop offset="1" stop-color="#5CB531"/>
</linearGradient>
<linearGradient id="paint2_linear" x1="20.8083" y1="10.5054" x2="29.3324" y2="10.5054" gradientUnits="userSpaceOnUse">
<stop stop-color="#007940"/>
<stop offset="0.2285" stop-color="#00873F"/>
<stop offset="0.7433" stop-color="#40A737"/>
<stop offset="1" stop-color="#5CB531"/>
</linearGradient>
<linearGradient id="paint3_linear" x1="1.72687" y1="11.9505" x2="10.3822" y2="11.9505" gradientUnits="userSpaceOnUse">
<stop stop-color="#1F286F"/>
<stop offset="0.4751" stop-color="#004E94"/>
<stop offset="0.8261" stop-color="#0066B1"/>
<stop offset="1" stop-color="#006FBC"/>
</linearGradient>
<linearGradient id="paint4_linear" x1="11.2222" y1="11.9504" x2="19.6286" y2="11.9504" gradientUnits="userSpaceOnUse">
<stop stop-color="#6C2C2F"/>
<stop offset="0.1735" stop-color="#882730"/>
<stop offset="0.5731" stop-color="#BE1833"/>
<stop offset="0.8585" stop-color="#DC0436"/>
<stop offset="1" stop-color="#E60039"/>
</linearGradient>
<clipPath id="clip0">
<rect width="31.04" height="24" fill="white"/>
</clipPath>
</defs>
</svg>
