<svg width="50" height="50" viewBox="0 0 50 50" fill="none" xmlns="http://www.w3.org/2000/svg">
<g clip-path="url(#clip0)">
<path d="M49.1492 23.5862C46.153 23.4814 43.2214 23.9219 40.4669 24.863C40.4121 21.9211 39.8211 19.0371 38.7039 16.2723C38.5214 15.8208 38.0081 15.6026 37.5558 15.785C35.8108 16.4899 34.1766 17.3804 32.6658 18.445C30.8521 14.8679 28.4874 11.6081 25.6229 8.74473C25.2784 8.40039 24.7202 8.40039 24.376 8.74482C21.5102 11.6105 19.1457 14.8698 17.3334 18.4437C15.8234 17.3797 14.1899 16.4896 12.4455 15.785C11.9936 15.6025 11.48 15.8207 11.2974 16.2723C10.1784 19.0416 9.58708 21.9304 9.53386 24.8772C6.81696 23.9436 3.88913 23.4804 0.85153 23.5862C0.364714 23.6033 -0.0160482 24.0116 0.00094404 24.4983C0.456706 37.5486 11.2176 47.8544 24.1757 47.8544C24.4492 47.8544 24.7251 47.8494 25.0005 47.8403C25.2765 47.8496 25.5512 47.8544 25.8254 47.8544C38.7823 47.8544 49.5443 37.548 50 24.4983C50.0168 24.0116 49.636 23.6032 49.1492 23.5862ZM12.612 17.7735C15.0969 18.8922 17.3239 20.4283 19.242 22.3485C21.3012 24.4065 22.9161 26.8117 24.049 29.5002C23.2932 31.4524 22.7974 33.4703 22.5663 35.5288C19.9666 31.1145 16.0099 27.6066 11.2949 25.5602C11.266 22.9014 11.708 20.2886 12.612 17.7735ZM1.81286 25.3352C7.47234 25.3594 12.835 27.4809 16.9978 31.3629C21.1609 35.245 23.6514 40.4459 24.0701 46.0904C12.4033 46.0356 2.68132 36.9697 1.81286 25.3352ZM20.4892 21.1015C19.9362 20.5479 19.3589 20.0246 18.7594 19.5309C20.3747 16.2734 22.4696 13.2854 24.9997 10.6308C27.5284 13.2836 29.6231 16.2718 31.2397 19.5322C30.6408 20.0255 30.0639 20.548 29.5113 21.1011C27.6722 22.9393 26.1607 25.0358 25.0003 27.3509C23.8408 25.037 22.3295 22.9405 20.4892 21.1015ZM24.9969 41.2314C24.7676 40.4146 24.4969 39.6157 24.1867 38.8371C24.1809 38.6487 24.178 38.4496 24.178 38.2313C24.178 35.3409 24.7298 32.5108 25.8178 29.8193C26.9574 26.9993 28.6196 24.4857 30.7586 22.3481C32.6775 20.428 34.9048 18.892 37.3895 17.7735C38.2914 20.2831 38.7332 22.8899 38.7064 25.5427C36.1946 26.6293 33.8611 28.1509 31.8003 30.0728C28.5013 33.149 26.1775 36.9939 24.9969 41.2314ZM25.9307 46.0903C26.3495 40.4459 28.8397 35.245 33.0029 31.3628C37.1661 27.4805 42.5279 25.359 48.188 25.3351C47.3193 36.9704 37.5985 46.0366 25.9307 46.0903Z" fill="black"/>
<path d="M1.37577 21.0095C1.86285 21.0095 2.2577 20.6146 2.2577 20.1275C2.2577 19.6405 1.86285 19.2456 1.37577 19.2456C0.888691 19.2456 0.493835 19.6405 0.493835 20.1275C0.493835 20.6146 0.888691 21.0095 1.37577 21.0095Z" fill="black"/>
<path d="M12.115 11.218C12.6021 11.218 12.997 10.8231 12.997 10.336C12.997 9.84896 12.6021 9.4541 12.115 9.4541C11.6279 9.4541 11.2331 9.84896 11.2331 10.336C11.2331 10.8231 11.6279 11.218 12.115 11.218Z" fill="black"/>
<path d="M24.9992 3.90947C25.4863 3.90947 25.8811 3.51462 25.8811 3.02754C25.8811 2.54046 25.4863 2.14561 24.9992 2.14561C24.5121 2.14561 24.1173 2.54046 24.1173 3.02754C24.1173 3.51462 24.5121 3.90947 24.9992 3.90947Z" fill="black"/>
<path d="M37.8857 11.218C38.3727 11.218 38.7676 10.8231 38.7676 10.336C38.7676 9.84896 38.3727 9.4541 37.8857 9.4541C37.3986 9.4541 37.0037 9.84896 37.0037 10.336C37.0037 10.8231 37.3986 11.218 37.8857 11.218Z" fill="black"/>
<path d="M48.6227 21.0095C49.1097 21.0095 49.5046 20.6146 49.5046 20.1275C49.5046 19.6405 49.1097 19.2456 48.6227 19.2456C48.1356 19.2456 47.7407 19.6405 47.7407 20.1275C47.7407 20.6146 48.1356 21.0095 48.6227 21.0095Z" fill="black"/>
</g>
<defs>
<clipPath id="clip0">
<rect width="50" height="50" fill="none"/>
</clipPath>
</defs>
</svg>