<svg width="31" height="24" viewBox="0 0 31 24" fill="none" xmlns="http://www.w3.org/2000/svg">
<g clip-path="url(#clip0)">
<path d="M5.61568 23.8807V22.2923C5.61568 21.6832 5.24495 21.2862 4.60949 21.2862C4.29182 21.2862 3.94762 21.3921 3.70931 21.7363C3.52406 21.445 3.25934 21.2862 2.86219 21.2862C2.59735 21.2862 2.33274 21.3656 2.12085 21.6568V21.3391H1.56487V23.8807H2.12085V22.4775C2.12085 22.0275 2.35916 21.8156 2.72989 21.8156C3.10038 21.8156 3.28587 22.054 3.28587 22.4775V23.8807H3.84185V22.4775C3.84185 22.0275 4.10645 21.8156 4.45065 21.8156C4.82139 21.8156 5.00663 22.054 5.00663 22.4775V23.8807H5.61568V23.8807ZM13.8494 21.3391H12.9493V20.5714H12.3933V21.3391H11.8903V21.8421H12.3932V23.0071C12.3932 23.5896 12.6315 23.9337 13.267 23.9337C13.5053 23.9337 13.7699 23.8543 13.9554 23.7484L13.7964 23.2718C13.6376 23.3777 13.4523 23.4042 13.3199 23.4042C13.0552 23.4042 12.9493 23.2454 12.9493 22.9805V21.8421H13.8494V21.3391V21.3391ZM18.5621 21.2861C18.2444 21.2861 18.0326 21.445 17.9002 21.6568V21.3391H17.3442V23.8807H17.9002V22.4511C17.9002 22.0275 18.0854 21.7892 18.4296 21.7892C18.5355 21.7892 18.6679 21.8158 18.7738 21.8422L18.9327 21.3127C18.8268 21.2862 18.6679 21.2862 18.5621 21.2862V21.2861ZM11.4402 21.5509C11.1754 21.3656 10.8047 21.2862 10.4076 21.2862C9.77226 21.2862 9.3487 21.6039 9.3487 22.1069C9.3487 22.5306 9.66637 22.7688 10.2224 22.8482L10.4871 22.8748C10.7783 22.9276 10.9372 23.0071 10.9372 23.1395C10.9372 23.3247 10.7254 23.4572 10.3547 23.4572C9.98404 23.4572 9.69278 23.3247 9.50742 23.1924L9.24269 23.616C9.53395 23.8278 9.9311 23.9337 10.3281 23.9337C11.0695 23.9337 11.4931 23.5896 11.4931 23.113C11.4931 22.6629 11.1489 22.4246 10.6194 22.3452L10.3547 22.3187C10.1163 22.2921 9.9311 22.2393 9.9311 22.0805C9.9311 21.8951 10.1163 21.7892 10.4076 21.7892C10.7254 21.7892 11.0431 21.9215 11.2019 22.001L11.4402 21.5509V21.5509ZM26.2135 21.2862C25.8957 21.2862 25.6839 21.445 25.5515 21.6568V21.3391H24.9955V23.8807H25.5515V22.4511C25.5515 22.0275 25.7368 21.7892 26.0809 21.7892C26.1869 21.7892 26.3194 21.8158 26.4252 21.8422L26.5841 21.3127C26.4782 21.2862 26.3194 21.2862 26.2135 21.2862V21.2862ZM19.118 22.6099C19.118 23.3777 19.6475 23.9337 20.4683 23.9337C20.8389 23.9337 21.1036 23.8543 21.3684 23.6425L21.1036 23.1924C20.8919 23.3513 20.6801 23.4306 20.4418 23.4306C19.9917 23.4306 19.674 23.113 19.674 22.6099C19.674 22.1334 19.9917 21.8156 20.4418 21.7892C20.6801 21.7892 20.8919 21.8686 21.1036 22.0275L21.3684 21.5774C21.1036 21.3656 20.8389 21.2862 20.4683 21.2862C19.6475 21.2862 19.118 21.8422 19.118 22.6099ZM24.2543 22.6099V21.3391H23.6983V21.6568C23.5129 21.4186 23.2482 21.2862 22.904 21.2862C22.1892 21.2862 21.6332 21.8422 21.6332 22.6099C21.6332 23.3777 22.1892 23.9337 22.904 23.9337C23.2746 23.9337 23.5395 23.8014 23.6983 23.5631V23.8807H24.2543V22.6099V22.6099ZM22.2156 22.6099C22.2156 22.1598 22.5069 21.7892 22.9834 21.7892C23.4334 21.7892 23.7512 22.1334 23.7512 22.6099C23.7512 23.06 23.4334 23.4306 22.9834 23.4306C22.5069 23.4041 22.2156 23.06 22.2156 22.6099V22.6099ZM15.5704 21.2862C14.829 21.2862 14.2995 21.8156 14.2995 22.6099C14.2995 23.4042 14.8289 23.9337 15.5968 23.9337C15.9674 23.9337 16.3381 23.8278 16.6294 23.5896L16.3645 23.1924C16.1528 23.3513 15.888 23.4572 15.6233 23.4572C15.2791 23.4572 14.9349 23.2983 14.8554 22.8481H16.7353V22.6365C16.7618 21.8156 16.2852 21.2862 15.5703 21.2862H15.5704ZM15.5704 21.7627C15.9145 21.7627 16.1529 21.9746 16.2057 22.3717H14.882C14.9349 22.0275 15.1732 21.7627 15.5704 21.7627ZM29.364 22.6099V20.3331H28.808V21.6568C28.6226 21.4186 28.3579 21.2862 28.0137 21.2862C27.2989 21.2862 26.7429 21.8422 26.7429 22.6099C26.7429 23.3777 27.2989 23.9337 28.0137 23.9337C28.3844 23.9337 28.6492 23.8014 28.808 23.5631V23.8807H29.364V22.6099V22.6099ZM27.3254 22.6099C27.3254 22.1598 27.6166 21.7892 28.0932 21.7892C28.5433 21.7892 28.8609 22.1334 28.8609 22.6099C28.8609 23.06 28.5433 23.4306 28.0932 23.4306C27.6166 23.4041 27.3254 23.06 27.3254 22.6099V22.6099ZM8.73966 22.6099V21.3391H8.18368V21.6568C7.99831 21.4186 7.73359 21.2862 7.38939 21.2862C6.67457 21.2862 6.11859 21.8422 6.11859 22.6099C6.11859 23.3777 6.67457 23.9337 7.38939 23.9337C7.76012 23.9337 8.02485 23.8014 8.18368 23.5631V23.8807H8.73966V22.6099V22.6099ZM6.67457 22.6099C6.67457 22.1598 6.96583 21.7892 7.44233 21.7892C7.89242 21.7892 8.21021 22.1334 8.21021 22.6099C8.21021 23.06 7.89242 23.4306 7.44233 23.4306C6.96583 23.4041 6.67457 23.06 6.67457 22.6099V22.6099Z" fill="black"/>
<path d="M11.2548 2.03855H19.5945V17.0236H11.2548V2.03855Z" fill="#FF5F00"/>
<path d="M11.7844 9.53114C11.7844 6.48651 13.214 3.78597 15.4114 2.03855C13.7965 0.767759 11.758 0 9.53406 0C4.26528 0 0.00280762 4.26247 0.00280762 9.53114C0.00280762 14.7997 4.26528 19.0623 9.53394 19.0623C11.7579 19.0623 13.7964 18.2945 15.4114 17.0236C13.214 15.3027 11.7844 12.5758 11.7844 9.53114V9.53114Z" fill="#EB001B"/>
<path d="M30.8466 9.53114C30.8466 14.7997 26.5841 19.0623 21.3154 19.0623C19.0915 19.0623 17.053 18.2945 15.438 17.0236C17.6619 15.2763 19.0651 12.5758 19.0651 9.53114C19.0651 6.48651 17.6353 3.78597 15.438 2.03855C17.0528 0.767759 19.0915 0 21.3154 0C26.5841 0 30.8467 4.28901 30.8467 9.53114H30.8466Z" fill="#F79E1B"/>
</g>
<defs>
<clipPath id="clip0">
<rect width="30.88" height="24" fill="white"/>
</clipPath>
</defs>
</svg>
