<svg width="32" height="32" viewBox="0 0 32 32" fill="none" xmlns="http://www.w3.org/2000/svg">
<path d="M32 13.5V14.5C32 15.3284 31.4031 16 30.6667 16H30.2222L28.7715 27.4242C28.5838 28.9022 27.4587 30 26.1317 30H5.86833C4.54128 30 3.41617 28.9022 3.22844 27.4242L1.77778 16H1.33333C0.596944 16 0 15.3284 0 14.5V13.5C0 12.6716 0.596944 12 1.33333 12H5.0745L11.0067 2.82368C11.5842 1.93043 12.696 1.73287 13.4901 2.38256C14.2842 3.03225 14.4597 4.28306 13.8822 5.17637L9.47094 12H22.5291L18.1178 5.17631C17.5403 4.28306 17.7159 3.03218 18.5099 2.3825C19.3039 1.73281 20.4158 1.93031 20.9933 2.82362L26.9255 12H30.6667C31.4031 12 32 12.6716 32 13.5ZM17.3333 24.5V17.5C17.3333 16.6716 16.7364 16 16 16C15.2636 16 14.6667 16.6716 14.6667 17.5V24.5C14.6667 25.3284 15.2636 26 16 26C16.7364 26 17.3333 25.3284 17.3333 24.5ZM23.5556 24.5V17.5C23.5556 16.6716 22.9586 16 22.2222 16C21.4858 16 20.8889 16.6716 20.8889 17.5V24.5C20.8889 25.3284 21.4858 26 22.2222 26C22.9586 26 23.5556 25.3284 23.5556 24.5ZM11.1111 24.5V17.5C11.1111 16.6716 10.5142 16 9.77778 16C9.04139 16 8.44444 16.6716 8.44444 17.5V24.5C8.44444 25.3284 9.04139 26 9.77778 26C10.5142 26 11.1111 25.3284 11.1111 24.5Z" fill="#333333"/>
</svg>
