<svg width="45" height="13" viewBox="0 0 45 13" fill="none" xmlns="http://www.w3.org/2000/svg">
<g clip-path="url(#clip0)">
<path d="M23.273 4.13932C23.2473 5.94303 25.0769 6.94952 26.4552 7.54799C27.8712 8.16196 28.3469 8.55572 28.3413 9.10485C28.3307 9.94515 27.2117 10.316 26.1646 10.3305C24.3378 10.3557 23.2756 9.89096 22.4312 9.53949L21.7731 12.2834C22.6203 12.6313 24.1891 12.9347 25.8159 12.948C29.6346 12.948 32.1329 11.2683 32.1464 8.66411C32.1614 5.35897 27.0159 5.17603 27.0511 3.69873C27.0632 3.25078 27.5429 2.77276 28.594 2.65122C29.1143 2.58982 30.5506 2.54283 32.179 3.211L32.8181 0.55618C31.9424 0.27206 30.8169 -7.40133e-07 29.4156 -7.40133e-07C25.8213 -7.40133e-07 23.2933 1.70253 23.273 4.13932V4.13932ZM38.9593 0.228674C38.262 0.228674 37.6744 0.591107 37.4121 1.14729L31.9573 12.753H35.7732L36.5326 10.883H41.1955L41.636 12.753H44.9993L42.0644 0.228674H38.9593V0.228674ZM39.4931 3.61196L40.5944 8.31499H37.5784L39.4931 3.61196V3.61196ZM18.6464 0.22883L15.6385 12.7528H19.2748L22.2812 0.228517H18.6464V0.22883ZM13.2671 0.228517L9.48234 8.75323L7.95134 1.50502C7.7717 0.695891 7.06227 0.228674 6.27445 0.228674H0.0875116L0.000854492 0.59236C1.27101 0.837951 2.71412 1.23406 3.58843 1.65789C4.12348 1.91679 4.27606 2.14312 4.45183 2.75835L7.3516 12.753H11.1942L17.0855 0.228674H13.2671" fill="url(#paint0_linear)"/>
</g>
<defs>
<linearGradient id="paint0_linear" x1="20.6884" y1="13.2077" x2="21.0225" y2="-0.0922245" gradientUnits="userSpaceOnUse">
<stop stop-color="#222357"/>
<stop offset="1" stop-color="#254AA5"/>
</linearGradient>
<clipPath id="clip0">
<rect width="45" height="13" fill="white"/>
</clipPath>
</defs>
</svg>
